<svg xmlns="http://www.w3.org/2000/svg" version="1.1" xmlns:xlink="http://www.w3.org/1999/xlink" xmlns:svgjs="http://svgjs.com/svgjs" width="1440" height="560" preserveAspectRatio="none" viewBox="0 0 1440 560"><g mask="url(&quot;#SvgjsMask1000&quot;)" fill="none"><rect width="1440" height="560" x="0" y="0" fill="#0e2a47"></rect><path d="M-78.24 360.49L-78.24 360.49" stroke="#132e65" stroke-width="1.5"></path><path d="M-78.24 360.49L100.77 381.36" stroke="#132e65" stroke-width="1.5"></path><path d="M-78.24 360.49L-104.58 545.36" stroke="#132e65" stroke-width="1.5"></path><path d="M-104.58 545.36L-104.58 545.36" stroke="#132e65" stroke-width="1.5"></path><path d="M-104.58 545.36L-77.63 652.13" stroke="#132e65" stroke-width="1.5"></path><path d="M-104.58 545.36L89.56 496.01" stroke="#132e65" stroke-width="1.5"></path><path d="M-104.58 545.36L92.66 684.13" stroke="#132e65" stroke-width="1.5"></path><path d="M-77.63 652.13L-77.63 652.13" stroke="#132e65" stroke-width="1.5"></path><path d="M-77.63 652.13L92.66 684.13" stroke="#132e65" stroke-width="1.5"></path><path d="M-77.63 652.13L89.56 496.01" stroke="#132e65" stroke-width="1.5"></path><path d="M-77.63 652.13L208.82 705.71" stroke="#132e65" stroke-width="1.5"></path><path d="M-77.63 652.13L-78.24 360.49" stroke="#132e65" stroke-width="1.5"></path><path d="M-77.63 652.13L213.18 555.18" stroke="#132e65" stroke-width="1.5"></path><path d="M100.77 381.36L100.77 381.36" stroke="#132e65" stroke-width="1.5"></path><path d="M100.77 381.36L209.31 347.96" stroke="#132e65" stroke-width="1.5"></path><path d="M100.77 381.36L89.56 496.01" stroke="#132e65" stroke-width="1.5"></path><path d="M100.77 381.36L213.18 555.18" stroke="#132e65" stroke-width="1.5"></path><path d="M100.77 381.36L-104.58 545.36" stroke="#132e65" stroke-width="1.5"></path><path d="M100.77 381.36L374.87 399.91" stroke="#132e65" stroke-width="1.5"></path><path d="M89.56 496.01L89.56 496.01" stroke="#132e65" stroke-width="1.5"></path><path d="M89.56 496.01L213.18 555.18" stroke="#132e65" stroke-width="1.5"></path><path d="M92.66 684.13L92.66 684.13" stroke="#132e65" stroke-width="1.5"></path><path d="M92.66 684.13L208.82 705.71" stroke="#132e65" stroke-width="1.5"></path><path d="M92.66 684.13L213.18 555.18" stroke="#132e65" stroke-width="1.5"></path><path d="M92.66 684.13L89.56 496.01" stroke="#132e65" stroke-width="1.5"></path><path d="M92.66 684.13L377.92 698.84" stroke="#132e65" stroke-width="1.5"></path><path d="M209.31 347.96L209.31 347.96" stroke="#132e65" stroke-width="1.5"></path><path d="M209.31 347.96L374.87 399.91" stroke="#132e65" stroke-width="1.5"></path><path d="M209.31 347.96L89.56 496.01" stroke="#132e65" stroke-width="1.5"></path><path d="M209.31 347.96L213.18 555.18" stroke="#132e65" stroke-width="1.5"></path><path d="M209.31 347.96L397.97 560.52" stroke="#132e65" stroke-width="1.5"></path><path d="M209.31 347.96L-78.24 360.49" stroke="#132e65" stroke-width="1.5"></path><path d="M213.18 555.18L213.18 555.18" stroke="#132e65" stroke-width="1.5"></path><path d="M208.82 705.71L208.82 705.71" stroke="#132e65" stroke-width="1.5"></path><path d="M208.82 705.71L213.18 555.18" stroke="#132e65" stroke-width="1.5"></path><path d="M208.82 705.71L377.92 698.84" stroke="#132e65" stroke-width="1.5"></path><path d="M374.87 399.91L374.87 399.91" stroke="#132e65" stroke-width="1.5"></path><path d="M374.87 399.91L509.23 376.46" stroke="#132e65" stroke-width="1.5"></path><path d="M374.87 399.91L397.97 560.52" stroke="#132e65" stroke-width="1.5"></path><path d="M374.87 399.91L515.96 543" stroke="#132e65" stroke-width="1.5"></path><path d="M374.87 399.91L213.18 555.18" stroke="#132e65" stroke-width="1.5"></path><path d="M397.97 560.52L397.97 560.52" stroke="#132e65" stroke-width="1.5"></path><path d="M397.97 560.52L515.96 543" stroke="#132e65" stroke-width="1.5"></path><path d="M397.97 560.52L377.92 698.84" stroke="#132e65" stroke-width="1.5"></path><path d="M377.92 698.84L377.92 698.84" stroke="#132e65" stroke-width="1.5"></path><path d="M377.92 698.84L559.49 674.51" stroke="#132e65" stroke-width="1.5"></path><path d="M377.92 698.84L515.96 543" stroke="#132e65" stroke-width="1.5"></path><path d="M377.92 698.84L213.18 555.18" stroke="#132e65" stroke-width="1.5"></path><path d="M377.92 698.84L653.42 642.92" stroke="#132e65" stroke-width="1.5"></path><path d="M509.23 376.46L509.23 376.46" stroke="#132e65" stroke-width="1.5"></path><path d="M509.23 376.46L515.96 543" stroke="#132e65" stroke-width="1.5"></path><path d="M509.23 376.46L687.91 352.72" stroke="#132e65" stroke-width="1.5"></path><path d="M509.23 376.46L397.97 560.52" stroke="#132e65" stroke-width="1.5"></path><path d="M509.23 376.46L706.08 537.6" stroke="#132e65" stroke-width="1.5"></path><path d="M515.96 543L515.96 543" stroke="#132e65" stroke-width="1.5"></path><path d="M515.96 543L559.49 674.51" stroke="#132e65" stroke-width="1.5"></path><path d="M515.96 543L653.42 642.92" stroke="#132e65" stroke-width="1.5"></path><path d="M515.96 543L706.08 537.6" stroke="#132e65" stroke-width="1.5"></path><path d="M559.49 674.51L559.49 674.51" stroke="#132e65" stroke-width="1.5"></path><path d="M559.49 674.51L653.42 642.92" stroke="#132e65" stroke-width="1.5"></path><path d="M687.91 352.72L687.91 352.72" stroke="#132e65" stroke-width="1.5"></path><path d="M687.91 352.72L804.28 391.14" stroke="#132e65" stroke-width="1.5"></path><path d="M687.91 352.72L706.08 537.6" stroke="#132e65" stroke-width="1.5"></path><path d="M687.91 352.72L830.42 219.2" stroke="#132e65" stroke-width="1.5"></path><path d="M687.91 352.72L827.89 543.23" stroke="#132e65" stroke-width="1.5"></path><path d="M706.08 537.6L706.08 537.6" stroke="#132e65" stroke-width="1.5"></path><path d="M706.08 537.6L653.42 642.92" stroke="#132e65" stroke-width="1.5"></path><path d="M706.08 537.6L827.89 543.23" stroke="#132e65" stroke-width="1.5"></path><path d="M706.08 537.6L804.28 391.14" stroke="#132e65" stroke-width="1.5"></path><path d="M653.42 642.92L653.42 642.92" stroke="#132e65" stroke-width="1.5"></path><path d="M653.42 642.92L816.22 710.72" stroke="#132e65" stroke-width="1.5"></path><path d="M653.42 642.92L827.89 543.23" stroke="#132e65" stroke-width="1.5"></path><path d="M653.42 642.92L397.97 560.52" stroke="#132e65" stroke-width="1.5"></path><path d="M819.75 106.92L819.75 106.92" stroke="#132e65" stroke-width="1.5"></path><path d="M819.75 106.92L830.42 219.2" stroke="#132e65" stroke-width="1.5"></path><path d="M819.75 106.92L990.71 53.85" stroke="#132e65" stroke-width="1.5"></path><path d="M819.75 106.92L947.36 -62.17" stroke="#132e65" stroke-width="1.5"></path><path d="M819.75 106.92L687.91 352.72" stroke="#132e65" stroke-width="1.5"></path><path d="M819.75 106.92L804.28 391.14" stroke="#132e65" stroke-width="1.5"></path><path d="M819.75 106.92L991.18 349.63" stroke="#132e65" stroke-width="1.5"></path><path d="M830.42 219.2L830.42 219.2" stroke="#132e65" stroke-width="1.5"></path><path d="M830.42 219.2L804.28 391.14" stroke="#132e65" stroke-width="1.5"></path><path d="M830.42 219.2L991.18 349.63" stroke="#132e65" stroke-width="1.5"></path><path d="M804.28 391.14L804.28 391.14" stroke="#132e65" stroke-width="1.5"></path><path d="M804.28 391.14L827.89 543.23" stroke="#132e65" stroke-width="1.5"></path><path d="M827.89 543.23L827.89 543.23" stroke="#132e65" stroke-width="1.5"></path><path d="M827.89 543.23L970.67 518.11" stroke="#132e65" stroke-width="1.5"></path><path d="M827.89 543.23L816.22 710.72" stroke="#132e65" stroke-width="1.5"></path><path d="M816.22 710.72L816.22 710.72" stroke="#132e65" stroke-width="1.5"></path><path d="M816.22 710.72L706.08 537.6" stroke="#132e65" stroke-width="1.5"></path><path d="M947.36 -62.17L947.36 -62.17" stroke="#132e65" stroke-width="1.5"></path><path d="M947.36 -62.17L990.71 53.85" stroke="#132e65" stroke-width="1.5"></path><path d="M947.36 -62.17L1153.64 -72.91" stroke="#132e65" stroke-width="1.5"></path><path d="M990.71 53.85L990.71 53.85" stroke="#132e65" stroke-width="1.5"></path><path d="M990.71 53.85L1139.64 86.63" stroke="#132e65" stroke-width="1.5"></path><path d="M990.71 53.85L1153.64 -72.91" stroke="#132e65" stroke-width="1.5"></path><path d="M990.71 53.85L1101.65 232.76" stroke="#132e65" stroke-width="1.5"></path><path d="M991.18 349.63L991.18 349.63" stroke="#132e65" stroke-width="1.5"></path><path d="M991.18 349.63L1113.59 376.65" stroke="#132e65" stroke-width="1.5"></path><path d="M991.18 349.63L1101.65 232.76" stroke="#132e65" stroke-width="1.5"></path><path d="M991.18 349.63L970.67 518.11" stroke="#132e65" stroke-width="1.5"></path><path d="M991.18 349.63L804.28 391.14" stroke="#132e65" stroke-width="1.5"></path><path d="M970.67 518.11L970.67 518.11" stroke="#132e65" stroke-width="1.5"></path><path d="M970.67 518.11L1109.24 553.95" stroke="#132e65" stroke-width="1.5"></path><path d="M970.67 518.11L1113.59 376.65" stroke="#132e65" stroke-width="1.5"></path><path d="M1153.64 -72.91L1153.64 -72.91" stroke="#132e65" stroke-width="1.5"></path><path d="M1153.64 -72.91L1254.21 -95.61" stroke="#132e65" stroke-width="1.5"></path><path d="M1153.64 -72.91L1139.64 86.63" stroke="#132e65" stroke-width="1.5"></path><path d="M1153.64 -72.91L1258.42 51" stroke="#132e65" stroke-width="1.5"></path><path d="M1139.64 86.63L1139.64 86.63" stroke="#132e65" stroke-width="1.5"></path><path d="M1139.64 86.63L1258.42 51" stroke="#132e65" stroke-width="1.5"></path><path d="M1139.64 86.63L1101.65 232.76" stroke="#132e65" stroke-width="1.5"></path><path d="M1101.65 232.76L1101.65 232.76" stroke="#132e65" stroke-width="1.5"></path><path d="M1101.65 232.76L1113.59 376.65" stroke="#132e65" stroke-width="1.5"></path><path d="M1113.59 376.65L1113.59 376.65" stroke="#132e65" stroke-width="1.5"></path><path d="M1113.59 376.65L1241.86 338.38" stroke="#132e65" stroke-width="1.5"></path><path d="M1109.24 553.95L1109.24 553.95" stroke="#132e65" stroke-width="1.5"></path><path d="M1109.24 553.95L1122.19 708.83" stroke="#132e65" stroke-width="1.5"></path><path d="M1109.24 553.95L1113.59 376.65" stroke="#132e65" stroke-width="1.5"></path><path d="M1109.24 553.95L1301.32 512.24" stroke="#132e65" stroke-width="1.5"></path><path d="M1122.19 708.83L1122.19 708.83" stroke="#132e65" stroke-width="1.5"></path><path d="M1122.19 708.83L1293.04 645.23" stroke="#132e65" stroke-width="1.5"></path><path d="M1122.19 708.83L970.67 518.11" stroke="#132e65" stroke-width="1.5"></path><path d="M1122.19 708.83L1301.32 512.24" stroke="#132e65" stroke-width="1.5"></path><path d="M1254.21 -95.61L1254.21 -95.61" stroke="#132e65" stroke-width="1.5"></path><path d="M1254.21 -95.61L1258.42 51" stroke="#132e65" stroke-width="1.5"></path><path d="M1254.21 -95.61L1402.06 -54.31" stroke="#132e65" stroke-width="1.5"></path><path d="M1254.21 -95.61L1139.64 86.63" stroke="#132e65" stroke-width="1.5"></path><path d="M1258.42 51L1258.42 51" stroke="#132e65" stroke-width="1.5"></path><path d="M1258.42 51L1394.34 96.43" stroke="#132e65" stroke-width="1.5"></path><path d="M1258.42 51L1288.51 194.89" stroke="#132e65" stroke-width="1.5"></path><path d="M1288.51 194.89L1288.51 194.89" stroke="#132e65" stroke-width="1.5"></path><path d="M1288.51 194.89L1394.34 96.43" stroke="#132e65" stroke-width="1.5"></path><path d="M1288.51 194.89L1241.86 338.38" stroke="#132e65" stroke-width="1.5"></path><path d="M1288.51 194.89L1441.88 218.91" stroke="#132e65" stroke-width="1.5"></path><path d="M1241.86 338.38L1241.86 338.38" stroke="#132e65" stroke-width="1.5"></path><path d="M1241.86 338.38L1101.65 232.76" stroke="#132e65" stroke-width="1.5"></path><path d="M1241.86 338.38L1301.32 512.24" stroke="#132e65" stroke-width="1.5"></path><path d="M1241.86 338.38L1441.88 218.91" stroke="#132e65" stroke-width="1.5"></path><path d="M1301.32 512.24L1301.32 512.24" stroke="#132e65" stroke-width="1.5"></path><path d="M1301.32 512.24L1293.04 645.23" stroke="#132e65" stroke-width="1.5"></path><path d="M1301.32 512.24L1456.96 551.47" stroke="#132e65" stroke-width="1.5"></path><path d="M1293.04 645.23L1293.04 645.23" stroke="#132e65" stroke-width="1.5"></path><path d="M1293.04 645.23L1404.26 707.94" stroke="#132e65" stroke-width="1.5"></path><path d="M1293.04 645.23L1456.96 551.47" stroke="#132e65" stroke-width="1.5"></path><path d="M1293.04 645.23L1109.24 553.95" stroke="#132e65" stroke-width="1.5"></path><path d="M1293.04 645.23L1573.55 665.57" stroke="#132e65" stroke-width="1.5"></path><path d="M1402.06 -54.31L1402.06 -54.31" stroke="#132e65" stroke-width="1.5"></path><path d="M1402.06 -54.31L1394.34 96.43" stroke="#132e65" stroke-width="1.5"></path><path d="M1394.34 96.43L1394.34 96.43" stroke="#132e65" stroke-width="1.5"></path><path d="M1394.34 96.43L1441.88 218.91" stroke="#132e65" stroke-width="1.5"></path><path d="M1394.34 96.43L1586.55 89.91" stroke="#132e65" stroke-width="1.5"></path><path d="M1394.34 96.43L1556.68 260.67" stroke="#132e65" stroke-width="1.5"></path><path d="M1441.88 218.91L1441.88 218.91" stroke="#132e65" stroke-width="1.5"></path><path d="M1441.88 218.91L1556.68 260.67" stroke="#132e65" stroke-width="1.5"></path><path d="M1441.88 218.91L1586.55 89.91" stroke="#132e65" stroke-width="1.5"></path><path d="M1441.88 218.91L1593.04 393.15" stroke="#132e65" stroke-width="1.5"></path><path d="M1456.96 551.47L1456.96 551.47" stroke="#132e65" stroke-width="1.5"></path><path d="M1456.96 551.47L1608.97 549.19" stroke="#132e65" stroke-width="1.5"></path><path d="M1456.96 551.47L1573.55 665.57" stroke="#132e65" stroke-width="1.5"></path><path d="M1404.26 707.94L1404.26 707.94" stroke="#132e65" stroke-width="1.5"></path><path d="M1404.26 707.94L1456.96 551.47" stroke="#132e65" stroke-width="1.5"></path><path d="M1404.26 707.94L1573.55 665.57" stroke="#132e65" stroke-width="1.5"></path><path d="M1404.26 707.94L1301.32 512.24" stroke="#132e65" stroke-width="1.5"></path><path d="M1573.65 -111.94L1573.65 -111.94" stroke="#132e65" stroke-width="1.5"></path><path d="M1573.65 -111.94L1402.06 -54.31" stroke="#132e65" stroke-width="1.5"></path><path d="M1573.65 -111.94L1586.55 89.91" stroke="#132e65" stroke-width="1.5"></path><path d="M1573.65 -111.94L1394.34 96.43" stroke="#132e65" stroke-width="1.5"></path><path d="M1573.65 -111.94L1254.21 -95.61" stroke="#132e65" stroke-width="1.5"></path><path d="M1586.55 89.91L1586.55 89.91" stroke="#132e65" stroke-width="1.5"></path><path d="M1586.55 89.91L1556.68 260.67" stroke="#132e65" stroke-width="1.5"></path><path d="M1586.55 89.91L1402.06 -54.31" stroke="#132e65" stroke-width="1.5"></path><path d="M1586.55 89.91L1593.04 393.15" stroke="#132e65" stroke-width="1.5"></path><path d="M1556.68 260.67L1556.68 260.67" stroke="#132e65" stroke-width="1.5"></path><path d="M1556.68 260.67L1593.04 393.15" stroke="#132e65" stroke-width="1.5"></path><path d="M1593.04 393.15L1593.04 393.15" stroke="#132e65" stroke-width="1.5"></path><path d="M1593.04 393.15L1608.97 549.19" stroke="#132e65" stroke-width="1.5"></path><path d="M1593.04 393.15L1456.96 551.47" stroke="#132e65" stroke-width="1.5"></path><path d="M1593.04 393.15L1573.55 665.57" stroke="#132e65" stroke-width="1.5"></path><path d="M1608.97 549.19L1608.97 549.19" stroke="#132e65" stroke-width="1.5"></path><path d="M1608.97 549.19L1573.55 665.57" stroke="#132e65" stroke-width="1.5"></path><path d="M1608.97 549.19L1404.26 707.94" stroke="#132e65" stroke-width="1.5"></path><path d="M1608.97 549.19L1556.68 260.67" stroke="#132e65" stroke-width="1.5"></path><path d="M1608.97 549.19L1301.32 512.24" stroke="#132e65" stroke-width="1.5"></path><path d="M1573.55 665.57L1573.55 665.57" stroke="#132e65" stroke-width="1.5"></path><circle r="5" cx="-78.24" cy="360.49" fill="#132e65"></circle><circle r="5" cx="-104.58" cy="545.36" fill="#132e65"></circle><circle r="5" cx="-77.63" cy="652.13" fill="#132e65"></circle><circle r="5" cx="100.77" cy="381.36" fill="#132e65"></circle><circle r="5" cx="89.56" cy="496.01" fill="#132e65"></circle><circle r="5" cx="92.66" cy="684.13" fill="#132e65"></circle><circle r="5" cx="209.31" cy="347.96" fill="#132e65"></circle><circle r="5" cx="213.18" cy="555.18" fill="#132e65"></circle><circle r="5" cx="208.82" cy="705.71" fill="#132e65"></circle><circle r="5" cx="374.87" cy="399.91" fill="#132e65"></circle><circle r="5" cx="397.97" cy="560.52" fill="#132e65"></circle><circle r="5" cx="377.92" cy="698.84" fill="#132e65"></circle><circle r="5" cx="509.23" cy="376.46" fill="#132e65"></circle><circle r="5" cx="515.96" cy="543" fill="#132e65"></circle><circle r="5" cx="559.49" cy="674.51" fill="#132e65"></circle><circle r="5" cx="687.91" cy="352.72" fill="#132e65"></circle><circle r="5" cx="706.08" cy="537.6" fill="#132e65"></circle><circle r="5" cx="653.42" cy="642.92" fill="#132e65"></circle><circle r="5" cx="819.75" cy="106.92" fill="#132e65"></circle><circle r="5" cx="830.42" cy="219.2" fill="#132e65"></circle><circle r="5" cx="804.28" cy="391.14" fill="#132e65"></circle><circle r="5" cx="827.89" cy="543.23" fill="#132e65"></circle><circle r="5" cx="816.22" cy="710.72" fill="#132e65"></circle><circle r="5" cx="947.36" cy="-62.17" fill="#132e65"></circle><circle r="5" cx="990.71" cy="53.85" fill="#132e65"></circle><circle r="5" cx="991.18" cy="349.63" fill="#132e65"></circle><circle r="5" cx="970.67" cy="518.11" fill="#132e65"></circle><circle r="5" cx="1153.64" cy="-72.91" fill="#132e65"></circle><circle r="5" cx="1139.64" cy="86.63" fill="#132e65"></circle><circle r="5" cx="1101.65" cy="232.76" fill="#132e65"></circle><circle r="5" cx="1113.59" cy="376.65" fill="#132e65"></circle><circle r="5" cx="1109.24" cy="553.95" fill="#132e65"></circle><circle r="5" cx="1122.19" cy="708.83" fill="#132e65"></circle><circle r="5" cx="1254.21" cy="-95.61" fill="#132e65"></circle><circle r="5" cx="1258.42" cy="51" fill="#132e65"></circle><circle r="5" cx="1288.51" cy="194.89" fill="#132e65"></circle><circle r="5" cx="1241.86" cy="338.38" fill="#132e65"></circle><circle r="5" cx="1301.32" cy="512.24" fill="#132e65"></circle><circle r="5" cx="1293.04" cy="645.23" fill="#132e65"></circle><circle r="5" cx="1402.06" cy="-54.31" fill="#132e65"></circle><circle r="5" cx="1394.34" cy="96.43" fill="#132e65"></circle><circle r="5" cx="1441.88" cy="218.91" fill="#132e65"></circle><circle r="5" cx="1456.96" cy="551.47" fill="#132e65"></circle><circle r="5" cx="1404.26" cy="707.94" fill="#132e65"></circle><circle r="5" cx="1573.65" cy="-111.94" fill="#132e65"></circle><circle r="5" cx="1586.55" cy="89.91" fill="#132e65"></circle><circle r="5" cx="1556.68" cy="260.67" fill="#132e65"></circle><circle r="5" cx="1593.04" cy="393.15" fill="#132e65"></circle><circle r="5" cx="1608.97" cy="549.19" fill="#132e65"></circle><circle r="5" cx="1573.55" cy="665.57" fill="#132e65"></circle><path d="M-60.49 522.39L-60.49 522.39" stroke="hsl(228.5, 77.2%, 51.5%)" stroke-width="1.5"></path><path d="M-60.49 522.39L-85.75 648.62" stroke="hsl(228.5, 77.2%, 51.5%)" stroke-width="1.5"></path><path d="M216.73 666.9L216.73 666.9" stroke="hsl(228.5, 77.2%, 51.5%)" stroke-width="1.5"></path><path d="M216.73 666.9L339.66 639.89" stroke="hsl(228.5, 77.2%, 51.5%)" stroke-width="1.5"></path><path d="M216.73 666.9L201.3 526.14" stroke="hsl(228.5, 77.2%, 51.5%)" stroke-width="1.5"></path><path d="M216.73 666.9L41.6 708.17" stroke="hsl(228.5, 77.2%, 51.5%)" stroke-width="1.5"></path><path d="M959.39 667.06L959.39 667.06" stroke="hsl(228.5, 77.2%, 51.5%)" stroke-width="1.5"></path><path d="M959.39 667.06L830.71 652.11" stroke="hsl(228.5, 77.2%, 51.5%)" stroke-width="1.5"></path><path d="M959.39 667.06L979.9 533.66" stroke="hsl(228.5, 77.2%, 51.5%)" stroke-width="1.5"></path><path d="M959.39 667.06L1112.01 671.2" stroke="hsl(228.5, 77.2%, 51.5%)" stroke-width="1.5"></path><path d="M959.39 667.06L825.17 550.97" stroke="hsl(228.5, 77.2%, 51.5%)" stroke-width="1.5"></path><path d="M959.39 667.06L1092.69 490.71" stroke="hsl(228.5, 77.2%, 51.5%)" stroke-width="1.5"></path><path d="M1159.55 62.24L1159.55 62.24" stroke="hsl(228.5, 77.2%, 51.5%)" stroke-width="1.5"></path><path d="M1159.55 62.24L1159.39 -56.28" stroke="hsl(228.5, 77.2%, 51.5%)" stroke-width="1.5"></path><path d="M1159.55 62.24L1122.58 219.27" stroke="hsl(228.5, 77.2%, 51.5%)" stroke-width="1.5"></path><path d="M1159.55 62.24L1298.2 -98.17" stroke="hsl(228.5, 77.2%, 51.5%)" stroke-width="1.5"></path><path d="M1159.55 62.24L1435.84 -77.14" stroke="hsl(228.5, 77.2%, 51.5%)" stroke-width="1.5"></path><path d="M1159.55 62.24L1312.38 353.53" stroke="hsl(228.5, 77.2%, 51.5%)" stroke-width="1.5"></path><path d="M1159.55 62.24L1119.77 403.75" stroke="hsl(228.5, 77.2%, 51.5%)" stroke-width="1.5"></path><path d="M1298.2 -98.17L1298.2 -98.17" stroke="hsl(228.5, 77.2%, 51.5%)" stroke-width="1.5"></path><path d="M1298.2 -98.17L1435.84 -77.14" stroke="hsl(228.5, 77.2%, 51.5%)" stroke-width="1.5"></path><path d="M1281.43 682.75L1281.43 682.75" stroke="hsl(228.5, 77.2%, 51.5%)" stroke-width="1.5"></path><path d="M1281.43 682.75L1425.17 666.34" stroke="hsl(228.5, 77.2%, 51.5%)" stroke-width="1.5"></path><path d="M1281.43 682.75L1247.25 522.02" stroke="hsl(228.5, 77.2%, 51.5%)" stroke-width="1.5"></path><path d="M1281.43 682.75L1112.01 671.2" stroke="hsl(228.5, 77.2%, 51.5%)" stroke-width="1.5"></path><path d="M1281.43 682.75L1092.69 490.71" stroke="hsl(228.5, 77.2%, 51.5%)" stroke-width="1.5"></path><path d="M1281.43 682.75L959.39 667.06" stroke="hsl(228.5, 77.2%, 51.5%)" stroke-width="1.5"></path><path d="M1435.84 -77.14L1435.84 -77.14" stroke="hsl(228.5, 77.2%, 51.5%)" stroke-width="1.5"></path><path d="M1435.84 -77.14L1569.45 -99.98" stroke="hsl(228.5, 77.2%, 51.5%)" stroke-width="1.5"></path><path d="M-85.75 648.62L-85.75 648.62" stroke="hsl(228.5, 77.2%, 51.5%)" stroke-width="1.5"></path><path d="M-85.75 648.62L41.6 708.17" stroke="hsl(228.5, 77.2%, 51.5%)" stroke-width="1.5"></path><path d="M-85.75 648.62L216.73 666.9" stroke="hsl(228.5, 77.2%, 51.5%)" stroke-width="1.5"></path><path d="M-85.75 648.62L201.3 526.14" stroke="hsl(228.5, 77.2%, 51.5%)" stroke-width="1.5"></path><path d="M-85.75 648.62L339.66 639.89" stroke="hsl(228.5, 77.2%, 51.5%)" stroke-width="1.5"></path><path d="M41.6 708.17L41.6 708.17" stroke="hsl(228.5, 77.2%, 51.5%)" stroke-width="1.5"></path><path d="M41.6 708.17L-60.49 522.39" stroke="hsl(228.5, 77.2%, 51.5%)" stroke-width="1.5"></path><path d="M41.6 708.17L201.3 526.14" stroke="hsl(228.5, 77.2%, 51.5%)" stroke-width="1.5"></path><path d="M41.6 708.17L339.66 639.89" stroke="hsl(228.5, 77.2%, 51.5%)" stroke-width="1.5"></path><path d="M201.3 526.14L201.3 526.14" stroke="hsl(228.5, 77.2%, 51.5%)" stroke-width="1.5"></path><path d="M201.3 526.14L344.7 497.67" stroke="hsl(228.5, 77.2%, 51.5%)" stroke-width="1.5"></path><path d="M201.3 526.14L339.66 639.89" stroke="hsl(228.5, 77.2%, 51.5%)" stroke-width="1.5"></path><path d="M344.7 497.67L344.7 497.67" stroke="hsl(228.5, 77.2%, 51.5%)" stroke-width="1.5"></path><path d="M344.7 497.67L339.66 639.89" stroke="hsl(228.5, 77.2%, 51.5%)" stroke-width="1.5"></path><path d="M344.7 497.67L491.27 518.04" stroke="hsl(228.5, 77.2%, 51.5%)" stroke-width="1.5"></path><path d="M339.66 639.89L339.66 639.89" stroke="hsl(228.5, 77.2%, 51.5%)" stroke-width="1.5"></path><path d="M491.27 518.04L491.27 518.04" stroke="hsl(228.5, 77.2%, 51.5%)" stroke-width="1.5"></path><path d="M491.27 518.04L534.81 670.62" stroke="hsl(228.5, 77.2%, 51.5%)" stroke-width="1.5"></path><path d="M491.27 518.04L339.66 639.89" stroke="hsl(228.5, 77.2%, 51.5%)" stroke-width="1.5"></path><path d="M491.27 518.04L689.54 511.01" stroke="hsl(228.5, 77.2%, 51.5%)" stroke-width="1.5"></path><path d="M534.81 670.62L534.81 670.62" stroke="hsl(228.5, 77.2%, 51.5%)" stroke-width="1.5"></path><path d="M534.81 670.62L645.21 688.45" stroke="hsl(228.5, 77.2%, 51.5%)" stroke-width="1.5"></path><path d="M689.54 511.01L689.54 511.01" stroke="hsl(228.5, 77.2%, 51.5%)" stroke-width="1.5"></path><path d="M689.54 511.01L825.17 550.97" stroke="hsl(228.5, 77.2%, 51.5%)" stroke-width="1.5"></path><path d="M689.54 511.01L810.09 380" stroke="hsl(228.5, 77.2%, 51.5%)" stroke-width="1.5"></path><path d="M689.54 511.01L645.21 688.45" stroke="hsl(228.5, 77.2%, 51.5%)" stroke-width="1.5"></path><path d="M689.54 511.01L830.71 652.11" stroke="hsl(228.5, 77.2%, 51.5%)" stroke-width="1.5"></path><path d="M689.54 511.01L534.81 670.62" stroke="hsl(228.5, 77.2%, 51.5%)" stroke-width="1.5"></path><path d="M645.21 688.45L645.21 688.45" stroke="hsl(228.5, 77.2%, 51.5%)" stroke-width="1.5"></path><path d="M645.21 688.45L830.71 652.11" stroke="hsl(228.5, 77.2%, 51.5%)" stroke-width="1.5"></path><path d="M645.21 688.45L825.17 550.97" stroke="hsl(228.5, 77.2%, 51.5%)" stroke-width="1.5"></path><path d="M645.21 688.45L491.27 518.04" stroke="hsl(228.5, 77.2%, 51.5%)" stroke-width="1.5"></path><path d="M810.09 380L810.09 380" stroke="hsl(228.5, 77.2%, 51.5%)" stroke-width="1.5"></path><path d="M810.09 380L951.59 361.19" stroke="hsl(228.5, 77.2%, 51.5%)" stroke-width="1.5"></path><path d="M810.09 380L825.17 550.97" stroke="hsl(228.5, 77.2%, 51.5%)" stroke-width="1.5"></path><path d="M810.09 380L979.9 533.66" stroke="hsl(228.5, 77.2%, 51.5%)" stroke-width="1.5"></path><path d="M810.09 380L830.71 652.11" stroke="hsl(228.5, 77.2%, 51.5%)" stroke-width="1.5"></path><path d="M810.09 380L1092.69 490.71" stroke="hsl(228.5, 77.2%, 51.5%)" stroke-width="1.5"></path><path d="M825.17 550.97L825.17 550.97" stroke="hsl(228.5, 77.2%, 51.5%)" stroke-width="1.5"></path><path d="M825.17 550.97L830.71 652.11" stroke="hsl(228.5, 77.2%, 51.5%)" stroke-width="1.5"></path><path d="M830.71 652.11L830.71 652.11" stroke="hsl(228.5, 77.2%, 51.5%)" stroke-width="1.5"></path><path d="M830.71 652.11L979.9 533.66" stroke="hsl(228.5, 77.2%, 51.5%)" stroke-width="1.5"></path><path d="M951.59 361.19L951.59 361.19" stroke="hsl(228.5, 77.2%, 51.5%)" stroke-width="1.5"></path><path d="M951.59 361.19L1119.77 403.75" stroke="hsl(228.5, 77.2%, 51.5%)" stroke-width="1.5"></path><path d="M979.9 533.66L979.9 533.66" stroke="hsl(228.5, 77.2%, 51.5%)" stroke-width="1.5"></path><path d="M979.9 533.66L1092.69 490.71" stroke="hsl(228.5, 77.2%, 51.5%)" stroke-width="1.5"></path><path d="M979.9 533.66L825.17 550.97" stroke="hsl(228.5, 77.2%, 51.5%)" stroke-width="1.5"></path><path d="M979.9 533.66L951.59 361.19" stroke="hsl(228.5, 77.2%, 51.5%)" stroke-width="1.5"></path><path d="M1159.39 -56.28L1159.39 -56.28" stroke="hsl(228.5, 77.2%, 51.5%)" stroke-width="1.5"></path><path d="M1159.39 -56.28L1298.2 -98.17" stroke="hsl(228.5, 77.2%, 51.5%)" stroke-width="1.5"></path><path d="M1159.39 -56.28L1435.84 -77.14" stroke="hsl(228.5, 77.2%, 51.5%)" stroke-width="1.5"></path><path d="M1122.58 219.27L1122.58 219.27" stroke="hsl(228.5, 77.2%, 51.5%)" stroke-width="1.5"></path><path d="M1122.58 219.27L1119.77 403.75" stroke="hsl(228.5, 77.2%, 51.5%)" stroke-width="1.5"></path><path d="M1122.58 219.27L951.59 361.19" stroke="hsl(228.5, 77.2%, 51.5%)" stroke-width="1.5"></path><path d="M1122.58 219.27L1312.38 353.53" stroke="hsl(228.5, 77.2%, 51.5%)" stroke-width="1.5"></path><path d="M1122.58 219.27L1092.69 490.71" stroke="hsl(228.5, 77.2%, 51.5%)" stroke-width="1.5"></path><path d="M1122.58 219.27L1159.39 -56.28" stroke="hsl(228.5, 77.2%, 51.5%)" stroke-width="1.5"></path><path d="M1119.77 403.75L1119.77 403.75" stroke="hsl(228.5, 77.2%, 51.5%)" stroke-width="1.5"></path><path d="M1119.77 403.75L1092.69 490.71" stroke="hsl(228.5, 77.2%, 51.5%)" stroke-width="1.5"></path><path d="M1119.77 403.75L1247.25 522.02" stroke="hsl(228.5, 77.2%, 51.5%)" stroke-width="1.5"></path><path d="M1119.77 403.75L979.9 533.66" stroke="hsl(228.5, 77.2%, 51.5%)" stroke-width="1.5"></path><path d="M1119.77 403.75L1312.38 353.53" stroke="hsl(228.5, 77.2%, 51.5%)" stroke-width="1.5"></path><path d="M1092.69 490.71L1092.69 490.71" stroke="hsl(228.5, 77.2%, 51.5%)" stroke-width="1.5"></path><path d="M1092.69 490.71L1247.25 522.02" stroke="hsl(228.5, 77.2%, 51.5%)" stroke-width="1.5"></path><path d="M1112.01 671.2L1112.01 671.2" stroke="hsl(228.5, 77.2%, 51.5%)" stroke-width="1.5"></path><path d="M1112.01 671.2L1092.69 490.71" stroke="hsl(228.5, 77.2%, 51.5%)" stroke-width="1.5"></path><path d="M1312.38 353.53L1312.38 353.53" stroke="hsl(228.5, 77.2%, 51.5%)" stroke-width="1.5"></path><path d="M1312.38 353.53L1247.25 522.02" stroke="hsl(228.5, 77.2%, 51.5%)" stroke-width="1.5"></path><path d="M1312.38 353.53L1092.69 490.71" stroke="hsl(228.5, 77.2%, 51.5%)" stroke-width="1.5"></path><path d="M1312.38 353.53L1556.84 217.23" stroke="hsl(228.5, 77.2%, 51.5%)" stroke-width="1.5"></path><path d="M1247.25 522.02L1247.25 522.02" stroke="hsl(228.5, 77.2%, 51.5%)" stroke-width="1.5"></path><path d="M1247.25 522.02L1112.01 671.2" stroke="hsl(228.5, 77.2%, 51.5%)" stroke-width="1.5"></path><path d="M1425.17 666.34L1425.17 666.34" stroke="hsl(228.5, 77.2%, 51.5%)" stroke-width="1.5"></path><path d="M1425.17 666.34L1606.58 652.95" stroke="hsl(228.5, 77.2%, 51.5%)" stroke-width="1.5"></path><path d="M1425.17 666.34L1586.06 561.44" stroke="hsl(228.5, 77.2%, 51.5%)" stroke-width="1.5"></path><path d="M1425.17 666.34L1247.25 522.02" stroke="hsl(228.5, 77.2%, 51.5%)" stroke-width="1.5"></path><path d="M1569.45 -99.98L1569.45 -99.98" stroke="hsl(228.5, 77.2%, 51.5%)" stroke-width="1.5"></path><path d="M1569.45 -99.98L1298.2 -98.17" stroke="hsl(228.5, 77.2%, 51.5%)" stroke-width="1.5"></path><path d="M1569.45 -99.98L1556.84 217.23" stroke="hsl(228.5, 77.2%, 51.5%)" stroke-width="1.5"></path><path d="M1556.84 217.23L1556.84 217.23" stroke="hsl(228.5, 77.2%, 51.5%)" stroke-width="1.5"></path><path d="M1556.84 217.23L1594.62 353.03" stroke="hsl(228.5, 77.2%, 51.5%)" stroke-width="1.5"></path><path d="M1556.84 217.23L1435.84 -77.14" stroke="hsl(228.5, 77.2%, 51.5%)" stroke-width="1.5"></path><path d="M1556.84 217.23L1586.06 561.44" stroke="hsl(228.5, 77.2%, 51.5%)" stroke-width="1.5"></path><path d="M1556.84 217.23L1298.2 -98.17" stroke="hsl(228.5, 77.2%, 51.5%)" stroke-width="1.5"></path><path d="M1594.62 353.03L1594.62 353.03" stroke="hsl(228.5, 77.2%, 51.5%)" stroke-width="1.5"></path><path d="M1594.62 353.03L1586.06 561.44" stroke="hsl(228.5, 77.2%, 51.5%)" stroke-width="1.5"></path><path d="M1594.62 353.03L1312.38 353.53" stroke="hsl(228.5, 77.2%, 51.5%)" stroke-width="1.5"></path><path d="M1594.62 353.03L1606.58 652.95" stroke="hsl(228.5, 77.2%, 51.5%)" stroke-width="1.5"></path><path d="M1594.62 353.03L1425.17 666.34" stroke="hsl(228.5, 77.2%, 51.5%)" stroke-width="1.5"></path><path d="M1594.62 353.03L1247.25 522.02" stroke="hsl(228.5, 77.2%, 51.5%)" stroke-width="1.5"></path><path d="M1586.06 561.44L1586.06 561.44" stroke="hsl(228.5, 77.2%, 51.5%)" stroke-width="1.5"></path><path d="M1586.06 561.44L1606.58 652.95" stroke="hsl(228.5, 77.2%, 51.5%)" stroke-width="1.5"></path><path d="M1586.06 561.44L1281.43 682.75" stroke="hsl(228.5, 77.2%, 51.5%)" stroke-width="1.5"></path><path d="M1586.06 561.44L1247.25 522.02" stroke="hsl(228.5, 77.2%, 51.5%)" stroke-width="1.5"></path><path d="M1606.58 652.95L1606.58 652.95" stroke="hsl(228.5, 77.2%, 51.5%)" stroke-width="1.5"></path><path d="M1606.58 652.95L1281.43 682.75" stroke="hsl(228.5, 77.2%, 51.5%)" stroke-width="1.5"></path><path d="M1606.58 652.95L1247.25 522.02" stroke="hsl(228.5, 77.2%, 51.5%)" stroke-width="1.5"></path><circle r="25" cx="-60.49" cy="522.39" fill="url(#SvgjsRadialGradient1001)"></circle><circle r="25" cx="216.73" cy="666.9" fill="url(#SvgjsRadialGradient1001)"></circle><circle r="25" cx="959.39" cy="667.06" fill="url(#SvgjsRadialGradient1001)"></circle><circle r="25" cx="1159.55" cy="62.24" fill="url(#SvgjsRadialGradient1001)"></circle><circle r="25" cx="1298.2" cy="-98.17" fill="url(#SvgjsRadialGradient1001)"></circle><circle r="25" cx="1281.43" cy="682.75" fill="url(#SvgjsRadialGradient1001)"></circle><circle r="25" cx="1435.84" cy="-77.14" fill="url(#SvgjsRadialGradient1001)"></circle><circle r="5" cx="-85.75" cy="648.62" fill="#8b9ad9"></circle><circle r="5" cx="41.6" cy="708.17" fill="#8b9ad9"></circle><circle r="5" cx="201.3" cy="526.14" fill="#8b9ad9"></circle><circle r="5" cx="344.7" cy="497.67" fill="#8b9ad9"></circle><circle r="5" cx="339.66" cy="639.89" fill="#8b9ad9"></circle><circle r="5" cx="491.27" cy="518.04" fill="#8b9ad9"></circle><circle r="5" cx="534.81" cy="670.62" fill="#8b9ad9"></circle><circle r="5" cx="689.54" cy="511.01" fill="#8b9ad9"></circle><circle r="5" cx="645.21" cy="688.45" fill="#8b9ad9"></circle><circle r="5" cx="810.09" cy="380" fill="#8b9ad9"></circle><circle r="5" cx="825.17" cy="550.97" fill="#8b9ad9"></circle><circle r="5" cx="830.71" cy="652.11" fill="#8b9ad9"></circle><circle r="5" cx="951.59" cy="361.19" fill="#8b9ad9"></circle><circle r="5" cx="979.9" cy="533.66" fill="#8b9ad9"></circle><circle r="5" cx="1159.39" cy="-56.28" fill="#8b9ad9"></circle><circle r="5" cx="1122.58" cy="219.27" fill="#8b9ad9"></circle><circle r="5" cx="1119.77" cy="403.75" fill="#8b9ad9"></circle><circle r="5" cx="1092.69" cy="490.71" fill="#8b9ad9"></circle><circle r="5" cx="1112.01" cy="671.2" fill="#8b9ad9"></circle><circle r="5" cx="1312.38" cy="353.53" fill="#8b9ad9"></circle><circle r="5" cx="1247.25" cy="522.02" fill="#8b9ad9"></circle><circle r="5" cx="1425.17" cy="666.34" fill="#8b9ad9"></circle><circle r="5" cx="1569.45" cy="-99.98" fill="#8b9ad9"></circle><circle r="5" cx="1556.84" cy="217.23" fill="#8b9ad9"></circle><circle r="5" cx="1594.62" cy="353.03" fill="#8b9ad9"></circle><circle r="5" cx="1586.06" cy="561.44" fill="#8b9ad9"></circle><circle r="5" cx="1606.58" cy="652.95" fill="#8b9ad9"></circle></g><defs><mask id="SvgjsMask1000"><rect width="1440" height="560" fill="#ffffff"></rect></mask><radialGradient id="SvgjsRadialGradient1001"><stop stop-color="#ffffff" offset="0.1"></stop><stop stop-color="#1735b3" offset="0.2"></stop><stop stop-color="rgba(23, 53, 179, 0)" offset="1"></stop></radialGradient></defs></svg>